<svg width="24" height="24" viewBox="0 0 24 24" fill="none" xmlns="http://www.w3.org/2000/svg">
<path d="M10.5 6.5V4.5C10.5 3.67157 11.1716 3 12 3V3C12.8284 3 13.5 3.67157 13.5 4.5V10.5" stroke="currentColor" stroke-width="2" stroke-linecap="round" stroke-linejoin="round"/>
<path d="M7.5 14.5V6C7.5 5.17157 8.17157 4.5 9 4.5V4.5C9.82843 4.5 10.5 5.17157 10.5 6V10.5" stroke="currentColor" stroke-width="2" stroke-linecap="round" stroke-linejoin="round"/>
<path d="M13.5 6.5V6C13.5 5.17157 14.1716 4.5 15 4.5V4.5C15.8284 4.5 16.5 5.17157 16.5 6V10.5" stroke="currentColor" stroke-width="2" stroke-linecap="round" stroke-linejoin="round"/>
<path d="M16.5 7.5V7C16.5 6.17157 17.1716 5.5 18 5.5V5.5C18.8284 5.5 19.5 6.17157 19.5 7V17" stroke="currentColor" stroke-width="2" stroke-linecap="round" stroke-linejoin="round"/>
<path d="M7.5 14.5L6.19215 13.1922C5.49897 12.499 4.41287 12.3914 3.5972 12.9352V12.9352C2.69785 13.5348 2.43548 14.718 3.08278 15.5836C3.93236 16.7198 4.97836 17.9784 5.5 18.5C5.75915 18.7592 6.15263 19.0855 6.5934 19.4267C8.45266 20.8662 10.7141 21.765 13.0622 21.6418C15.9351 21.4911 19.5 20.5824 19.5 17" stroke="currentColor" stroke-width="2" stroke-linecap="round" stroke-linejoin="round"/>
</svg>
